# xmcd
#
# Track frame offsets:
#	150
#	15425
#	26472
#	43195
#	56030
#	71607
#	85240
#	99297
#	113002
#	127207
#	142575
#	160522
#	176082
#	196282
#	214565
#	229602
#	246222
#	267332
#	285352
#	302327
#
# Disc length: 4242 seconds
#
# Revision: 6
# Processed by: cddbd v1.5.2PL0 Copyright (c) Steve Scherf et al.
# Submitted via: audiograbber 1.83.01
#
DISCID=03109014
DTITLE=Various Artist - CDC 004: Τα Τραγούδια Μας (IV)
DYEAR=1996
DGENRE=Industrial
TTITLE0=Μαρινέλλα and Τόλης Βοσκόπουλος - Εγώ κι εσύ
TTITLE1=Φίλιππος Νικολάου - Φύλλα φθινοπωρινά
TTITLE2=Αντώνης Καλογιάννης and Αλκηστις Πρωτοψάλτη - Τα λόγια της αγάπης
TTITLE3=Μαρινέλλα - Η αγάπη μας
TTITLE4=Γιάννης Πουλόπουλος - Ζω για να σ' αγαπώ
TTITLE5=Βίκυ Μοσχολιού - Εχω εσένα ν' αγαπώ
TTITLE6=Δημήτρης Μητροπάνος - Η αγάπη χάθηκε
TTITLE7=Μαρινέλλα - Η πρώτη αγάπη σου είμαι εγώ
TTITLE8=Τόλης Βοσκόπουλος - Ο,τι αρχίζει ωραίο
TTITLE9=Αντώνης Καλογιάννης - Ανοιξε το παράθυρο
TTITLE10=Μανώλης Μητσιάς - Το πάθος σου διώκεται
TTITLE11=Αντώνης Καλογιάννης and Μαρινέλλα - Σ' αγαπώ
TTITLE12=Πασχάλης - Στο μπαράκι (I need to forget) 
TTITLE13=Τάνια Τσανακλίδου - Αν μ' αγαπάς
TTITLE14=Ελπίδα - Ετσι απλά σ' αγαπώ
TTITLE15=Πέτρος Γαϊτάνος - Και με παίρνουν τα κλάματα
TTITLE16=Διονύσης Σαββόπουλος - Καλοκαίρι
TTITLE17=Κώστας Χατζής - Απ' τ' αεροπλάνο
TTITLE18=Αλέκα Κανελλίδου and Λίτσα Σακελλαρίου and Μουζάς - Λιγνός - Βράδιασε, βρά
TTITLE18=διασε
TTITLE19=Σταύρος Ζώρας - Εσένα που σε ξέρω τόσο λίγο
EXTD=
EXTT0=
EXTT1=
EXTT2=
EXTT3=
EXTT4=
EXTT5=
EXTT6=
EXTT7=
EXTT8=
EXTT9=
EXTT10=
EXTT11=
EXTT12=
EXTT13=
EXTT14=
EXTT15=
EXTT16=
EXTT17=
EXTT18=
EXTT19=
PLAYORDER=
